<svg width="4800" height="5400" viewBox="4800 4700 4800 5400" fill="none" xmlns="http://www.w3.org/2000/svg">
<path d="M9419.49 6196.39C9256.65 6046.66 9073.63 5932.68 8880.07 5854.04C9209.63 6503.35 9122.04 7316.1 8600.18 7883.63C8078.32 8451.15 7275.74 8606.44 6601.14 8332.37C6695.7 8518.67 6824.59 8691.51 6987.43 8841.24C7717.78 9512.84 8854.28 9465.2 9525.88 8734.85C10197.5 8004.49 10149.8 6867.99 9419.49 6196.39Z" fill="url(#paint0_linear_1756_1569)"/>
<path d="M5080.75 6306.03C5032.5 6521.91 5025.3 6737.4 5053.98 6944.35C5451.51 6334.29 6199.17 6003.76 6951.59 6171.95C7704.01 6340.13 8239.78 6957.54 8339.73 7678.8C8453.79 7503.76 8539.03 7305.72 8587.29 7089.83C8803.73 6121.53 8194.23 5161.1 7225.92 4944.66C6257.62 4728.22 5297.2 5337.72 5080.75 6306.03Z" fill="url(#paint1_linear_1756_1569)"/>
<path d="M7334.25 10016.3C7545.34 9950.16 7735.56 9848.65 7900.44 9720.34C7173.35 9681.09 6513.27 9198.86 6282.72 8463.15C6052.16 7727.45 6318.96 6954.75 6893.62 6507.56C6685 6496.3 6470.87 6521.5 6259.78 6587.66C5312.98 6884.36 4785.98 7892.42 5082.69 8839.22C5379.4 9786.02 6387.46 10313 7334.25 10016.3Z" fill="url(#paint2_linear_1756_1569)"/>
<defs>
<linearGradient id="paint0_linear_1756_1569" x1="13710.4" y1="6721.7" x2="7113.18" y2="11323.3" gradientUnits="userSpaceOnUse">
<stop stop-color="#742218"/>
<stop offset="0.379571" stop-color="#BA5D4F"/>
<stop offset="0.759141" stop-color="#FFE5DB"/>
</linearGradient>
<linearGradient id="paint1_linear_1756_1569" x1="12554.2" y1="5597.32" x2="6932.55" y2="10763.6" gradientUnits="userSpaceOnUse">
<stop stop-color="#742218"/>
<stop offset="0.379571" stop-color="#BA5D4F"/>
<stop offset="0.759141" stop-color="#FFE5DB"/>
</linearGradient>
<linearGradient id="paint2_linear_1756_1569" x1="11066.8" y1="7405.89" x2="4767.85" y2="11016.7" gradientUnits="userSpaceOnUse">
<stop stop-color="#742218"/>
<stop offset="0.379571" stop-color="#BA5D4F"/>
<stop offset="0.759141" stop-color="#FFE5DB"/>
</linearGradient>
</defs>
</svg>
